# xmcd CD database file
#
# Track frame offsets:
#	183
#	38303
#	43310
#	48433
#	53105
#	55505
#	59343
#	61713
#	70480
#	77560
#	81920
#	84793
#	90715
#	93450
#	98103
#	99860
#	103018
#	106585
#	110935
#	115158
#	118940
#	121645
#	130800
#	134825
#	138120
#	147870
#	153883
#	165230
#	169075
#	186230
#	188100
#	192955
#	204340
#	207408
#	212535
#	222820
#	228303
#	234463
#	242823
#	255323
#	269385
#
# Disc length: 3875 seconds
#
# Revision: 1
# Processed by: cddbd v1.5.2PL0 Copyright (c) Steve Scherf et al.
# Submitted via: CDex 1.51
#
DISCID=300f2129
DTITLE=Olli Mustonen - Mussorgsky Pictures at an Exhibition
DYEAR=1992
DGENRE=Salsa
TTITLE0=Islamey
TTITLE1=Children's Album Morning prayer
TTITLE2=Children's Album Winter morning
TTITLE3=Children's Album Mama
TTITLE4=Children's Album Hobbyhorse
TTITLE5=Children's Album Toy soldiers march
TTITLE6=Children's Album The new doll
TTITLE7=Children's Album The sick doll
TTITLE8=Children's Album The doll's funeral
TTITLE9=Children's Album Waltz
TTITLE10=Children's Album Polka
TTITLE11=Children's Album Mazurka
TTITLE12=Children's Album Russian song
TTITLE13=Children's Album Peasant playing an accordion
TTITLE14=Children's Album Kamarinskaya (Russian dance)
TTITLE15=Children's Album Italian song
TTITLE16=Children's Album Old French song
TTITLE17=Children's Album German song
TTITLE18=Children's Album Neapolitan song
TTITLE19=Children's Album Nursery tale
TTITLE20=Children's Album Baba yaga the witch
TTITLE21=Children's Album Daydreams
TTITLE22=Children's Album Song of the lark
TTITLE23=Children's Album Organ-grinder's song
TTITLE24=Children's Album In church
TTITLE25=Pictures at an Exhibition -I- Promenade
TTITLE26=Pictures at an Exhibition -II- Gnomus
TTITLE27=Pictures at an Exhibition -III- Promenade
TTITLE28=Pictures at an Exhibition -IV- Il vecchio castello
TTITLE29=Pictures at an Exhibition -V- Promenade
TTITLE30=Pictures at an Exhibition -VI- Les Tuileries
TTITLE31=Pictures at an Exhibition -VII- Bydlo
TTITLE32=Pictures at an Exhibition -VIII- Promenade
TTITLE33=Pictures at an Exhibition -IX- Ballet des poussins dans leurs coques
TTITLE34=Pictures at an Exhibition -X- Samuel Goldenberg und Schmuyle
TTITLE35=Pictures at an Exhibition -XI- Promenade
TTITLE36=Pictures at an Exhibition -XII- Limoges: le marché
TTITLE37=Pictures at an Exhibition -XIII- Catacombae
TTITLE38=Pictures at an Exhibition -XIV- Cum mortuis in lingua morta
TTITLE39=Pictures at an Exhibition -XV- La Cabane sur des pattes de poule
TTITLE40=Pictures at an Exhibition -XVI- la Grande Porte de Kiev
EXTD=YEAR: 1992
EXTT0=
EXTT1=
EXTT2=
EXTT3=
EXTT4=
EXTT5=
EXTT6=
EXTT7=
EXTT8=
EXTT9=
EXTT10=
EXTT11=
EXTT12=
EXTT13=
EXTT14=
EXTT15=
EXTT16=
EXTT17=
EXTT18=
EXTT19=
EXTT20=
EXTT21=
EXTT22=
EXTT23=
EXTT24=
EXTT25=
EXTT26=
EXTT27=
EXTT28=
EXTT29=
EXTT30=
EXTT31=
EXTT32=
EXTT33=
EXTT34=
EXTT35=
EXTT36=
EXTT37=
EXTT38=
EXTT39=
EXTT40=
PLAYORDER=
